<?xml version="1.0" standalone="no"?>
<!DOCTYPE svg PUBLIC "-//W3C//DTD SVG 20010904//EN"
 "http://www.w3.org/TR/2001/REC-SVG-20010904/DTD/svg10.dtd">
<svg version="1.0" xmlns="http://www.w3.org/2000/svg"
 width="1272.000000pt" height="1272.000000pt" viewBox="0 0 1272.000000 1272.000000"
 preserveAspectRatio="xMidYMid meet">
<metadata>
Created by potrace 1.14, written by Peter Selinger 2001-2017
</metadata>
<g transform="translate(0.000000,1272.000000) scale(0.100000,-0.100000)"
fill="#000000" stroke="none">
<path d="M6135 12449 c14 -16 15 -20 3 -10 -9 7 -23 9 -29 5 -7 -4 -9 -3 -6 3
3 5 0 10 -8 10 -8 0 -11 -5 -8 -10 4 -6 0 -8 -10 -4 -9 3 -18 1 -21 -6 -3 -8
-5 -8 -5 2 -1 11 -4 11 -16 1 -11 -9 -15 -9 -15 -1 0 8 -5 9 -18 2 -13 -7 -22
-7 -29 0 -8 8 -13 7 -17 0 -4 -6 -12 -11 -17 -11 -6 0 -7 5 -4 10 11 18 -4 11
-26 -12 -12 -13 -19 -18 -16 -12 4 7 0 17 -8 24 -13 11 -14 10 -10 -3 8 -18
-11 -32 -21 -16 -5 8 -3 9 6 4 9 -6 11 -4 5 5 -6 10 -10 10 -20 -3 -10 -14
-12 -14 -21 1 -9 13 -12 13 -19 2 -6 -9 -4 -11 6 -5 8 5 11 4 6 -1 -5 -5 -45
-9 -90 -9 -45 0 -87 -4 -94 -8 -6 -4 -15 -2 -18 3 -5 7 -12 5 -22 -7 -8 -10
-12 -12 -8 -5 8 15 -11 16 -21 1 -3 -6 -15 -9 -25 -6 -11 3 -19 0 -19 -6 0 -7
-5 -5 -10 3 -7 11 -10 11 -10 2 0 -10 -5 -10 -20 -2 -15 8 -20 8 -20 -2 0 -9
-3 -9 -10 2 -9 13 -10 13 -10 0 0 -13 -1 -13 -10 0 -8 13 -14 8 -12 -11 1 -3
-5 -6 -13 -6 -8 0 -12 3 -10 7 2 4 -2 7 -10 7 -8 0 -12 -4 -9 -9 6 -9 -8 -10
-98 -11 -31 0 -55 -4 -52 -9 3 -4 -3 -9 -13 -10 -18 -1 -31 -4 -45 -8 -5 -1
-17 -3 -27 -4 -11 0 -23 -5 -28 -10 -5 -6 -2 -6 7 -1 8 5 12 4 7 -1 -12 -12
-57 -13 -57 0 0 6 -6 3 -14 -6 -10 -14 -15 -15 -26 -5 -10 9 -11 9 -6 0 4 -7
2 -13 -4 -13 -6 0 -9 -4 -5 -9 4 -8 -49 2 -58 10 -1 1 -11 -3 -23 -9 -16 -8
-24 -8 -33 1 -7 7 -12 8 -11 2 2 -5 2 -17 1 -25 -1 -13 -2 -13 -11 0 -5 8 -10
11 -10 5 0 -5 -11 -11 -25 -11 -15 -1 -22 2 -18 9 3 6 -11 -3 -32 -19 -22 -16
-36 -24 -32 -17 11 17 -19 10 -43 -12 -12 -11 -20 -13 -20 -6 0 9 -5 9 -20 1
-11 -6 -26 -8 -32 -4 -6 4 -8 3 -5 -3 4 -6 0 -13 -8 -17 -8 -3 -15 0 -15 7 0
8 -3 8 -9 -2 -6 -9 -11 -10 -15 -2 -9 14 -29 3 -23 -13 3 -7 -4 -13 -14 -13
-13 -1 -17 3 -12 10 3 7 -3 4 -14 -5 -23 -21 -37 -23 -28 -5 4 6 0 4 -9 -7 -8
-10 -19 -15 -25 -11 -6 3 -11 1 -11 -5 0 -6 -4 -8 -10 -5 -13 8 -52 -19 -42
-30 4 -4 -2 -3 -13 3 -15 8 -22 6 -33 -6 -7 -10 -11 -11 -7 -5 4 9 1 11 -9 7
-9 -3 -14 -10 -11 -14 2 -4 -8 -6 -24 -4 -18 2 -31 -2 -35 -11 -3 -8 -14 -12
-26 -10 -14 3 -20 -1 -20 -13 0 -13 -2 -14 -9 -4 -7 11 -9 11 -14 -2 -4 -9
-13 -13 -22 -10 -8 4 -15 1 -15 -6 0 -7 -7 -10 -16 -6 -9 4 -13 2 -8 -5 4 -7
0 -9 -14 -5 -12 4 -23 2 -28 -5 -5 -8 -3 -9 6 -4 8 5 11 4 7 -3 -4 -5 -15 -9
-25 -7 -9 1 -23 -3 -31 -9 -12 -9 -13 -8 -7 4 4 8 -2 4 -13 -9 -12 -13 -21
-19 -21 -14 0 5 -7 10 -15 10 -8 0 -12 -4 -9 -9 3 -4 -1 -8 -9 -8 -8 0 -18 -7
-21 -16 -5 -14 -9 -14 -23 -3 -12 10 -15 10 -9 1 5 -8 -2 -14 -23 -18 -17 -4
-28 -10 -25 -15 3 -5 -3 -10 -13 -10 -10 -1 -22 -2 -28 -4 -5 -1 -16 -3 -23
-3 -7 -1 -10 -7 -6 -14 5 -8 2 -9 -9 -5 -10 4 -17 2 -17 -4 0 -6 -7 -8 -16 -5
-8 3 -13 2 -10 -3 3 -5 -1 -12 -10 -15 -10 -4 -13 -2 -9 7 4 6 -1 3 -10 -8 -9
-11 -21 -19 -26 -17 -5 1 -9 -2 -9 -8 0 -6 -3 -9 -7 -9 -19 3 -34 -2 -29 -10
3 -4 -6 -7 -19 -5 -14 1 -23 -2 -19 -7 4 -8 -24 -14 -48 -10 -4 0 -4 -7 -1
-16 4 -10 2 -14 -4 -10 -15 9 -44 -3 -37 -14 3 -5 -4 -9 -15 -9 -12 0 -21 -5
-21 -11 0 -5 -4 -7 -10 -4 -5 3 -10 -2 -10 -12 0 -15 -2 -16 -10 -3 -8 12 -10
12 -10 1 0 -11 -3 -11 -17 0 -15 13 -15 12 -4 -8 10 -19 9 -22 -5 -16 -9 3
-20 0 -25 -8 -4 -8 -15 -14 -23 -14 -9 0 -23 -9 -31 -20 -9 -11 -14 -13 -10
-5 4 8 -3 4 -14 -9 -12 -13 -21 -18 -21 -12 0 6 -5 11 -12 11 -6 0 -9 -3 -5
-6 8 -9 -14 -30 -41 -38 -12 -4 -22 -12 -22 -17 0 -5 -7 -9 -15 -9 -8 0 -15
-4 -15 -10 0 -5 -7 -6 -17 -3 -11 4 -14 3 -9 -5 4 -7 2 -12 -4 -12 -6 0 -8 -5
-4 -12 5 -8 0 -7 -11 2 -10 8 -16 10 -12 4 4 -7 -12 -21 -39 -34 -25 -13 -50
-33 -56 -43 -8 -16 -12 -17 -19 -6 -6 9 -9 10 -9 2 0 -6 -9 -15 -20 -18 -11
-4 -18 -10 -15 -15 3 -5 1 -11 -5 -15 -5 -3 -10 0 -10 7 0 10 -3 9 -9 -2 -6
-8 -8 -17 -6 -21 3 -3 -5 -6 -18 -5 -15 1 -22 -4 -21 -16 1 -11 -5 -15 -17
-13 -12 2 -19 -2 -19 -11 0 -8 -4 -13 -9 -9 -5 3 -17 -5 -25 -17 -9 -12 -16
-17 -16 -10 0 10 -3 10 -14 0 -8 -7 -12 -16 -9 -20 2 -5 -2 -8 -10 -8 -18 0
-49 -34 -40 -44 4 -4 0 -4 -9 -1 -9 4 -19 1 -24 -6 -5 -8 -3 -10 7 -5 8 4 3
-2 -11 -13 -14 -11 -30 -21 -36 -21 -7 0 -15 -7 -18 -16 -3 -8 -10 -12 -16 -9
-9 6 -14 -8 -11 -28 1 -4 -8 -3 -18 3 -17 9 -19 7 -16 -11 4 -17 2 -19 -11 -8
-12 10 -13 9 -8 -7 4 -10 4 -16 -1 -12 -4 4 -14 0 -22 -10 -10 -11 -12 -12 -8
-2 4 8 -7 0 -24 -18 -16 -19 -35 -31 -41 -27 -6 4 -10 3 -9 -2 5 -26 -1 -35
-16 -23 -12 10 -13 8 -10 -10 3 -18 2 -20 -10 -10 -8 7 -16 10 -16 6 -1 -3 -2
-9 -3 -13 -2 -16 -47 -53 -56 -48 -6 3 -7 -1 -4 -9 4 -12 0 -16 -17 -17 -13 0
-19 -3 -12 -6 10 -3 10 -7 0 -18 -7 -8 -16 -10 -23 -4 -8 6 -10 2 -9 -16 2
-13 0 -24 -3 -24 -26 4 -34 -2 -22 -16 10 -12 8 -14 -9 -10 -19 3 -26 -5 -22
-27 0 -4 -6 -5 -13 -2 -13 5 -43 -32 -38 -47 1 -4 -8 -5 -18 -2 -16 4 -19 2
-13 -12 4 -13 3 -16 -5 -11 -7 4 -12 2 -12 -4 0 -6 -5 -8 -10 -5 -6 4 -10 3
-9 -2 4 -21 -2 -33 -15 -33 -8 0 -18 -5 -22 -12 -5 -7 -2 -9 7 -4 8 4 1 -5
-16 -20 -16 -15 -29 -30 -27 -33 1 -3 -4 -6 -10 -6 -7 -1 -12 -6 -11 -13 2 -7
-4 -9 -14 -5 -11 4 -14 3 -9 -5 4 -8 -2 -16 -16 -21 -13 -6 -17 -10 -8 -11 9
0 6 -6 -10 -15 -14 -7 -25 -17 -25 -22 0 -4 -3 -7 -7 -6 -4 2 -5 -4 -2 -11 3
-8 -4 -19 -16 -26 -12 -7 -19 -18 -16 -26 3 -7 2 -13 -2 -11 -16 5 -49 -29
-47 -50 1 -17 -1 -20 -11 -12 -8 7 -14 7 -19 -1 -3 -5 -3 -10 0 -10 3 0 0 -6
-7 -14 -7 -8 -17 -11 -22 -8 -5 3 -7 1 -3 -4 6 -10 -16 -44 -30 -47 -4 -1 -6
-8 -5 -16 2 -9 -3 -12 -16 -9 -16 4 -18 1 -14 -15 3 -13 1 -18 -6 -13 -13 8
-35 -28 -24 -39 4 -5 0 -6 -9 -2 -13 4 -16 1 -11 -15 3 -14 1 -19 -6 -14 -13
8 -54 -48 -44 -60 4 -4 -1 -3 -10 4 -14 11 -16 10 -11 -7 3 -13 1 -21 -7 -21
-7 0 -10 -7 -6 -16 4 -11 2 -15 -8 -11 -8 3 -17 -1 -20 -9 -4 -10 -1 -13 7 -9
6 4 3 -1 -8 -10 -11 -9 -20 -19 -20 -23 0 -4 -4 -6 -8 -4 -5 1 -6 -2 -2 -8 3
-5 1 -10 -5 -10 -6 0 -8 -4 -5 -10 3 -5 1 -10 -6 -10 -7 0 -10 -3 -6 -6 3 -4
-4 -15 -16 -25 -12 -10 -18 -18 -13 -19 5 0 -1 -9 -14 -20 -13 -11 -19 -20
-15 -20 4 0 -2 -9 -15 -20 -13 -11 -18 -20 -11 -20 9 0 8 -4 -1 -14 -7 -8 -16
-12 -20 -9 -4 2 -5 -3 -2 -11 3 -9 1 -16 -5 -16 -6 0 -11 -7 -11 -16 0 -9 -5
-12 -12 -8 -8 5 -8 1 2 -12 8 -10 11 -16 6 -12 -4 4 -14 1 -21 -5 -10 -9 -10
-15 -1 -26 8 -11 8 -13 -1 -8 -7 5 -17 -1 -23 -13 -6 -12 -16 -18 -23 -13 -7
4 -7 0 2 -10 12 -15 11 -17 -3 -17 -10 0 -15 -4 -12 -9 3 -5 -1 -14 -10 -21
-8 -7 -13 -19 -10 -27 3 -7 -1 -13 -9 -13 -8 0 -16 -4 -16 -10 -1 -5 -2 -15
-3 -20 0 -6 -8 -15 -16 -20 -8 -5 -10 -10 -5 -10 6 0 -1 -8 -15 -16 -14 -8
-17 -13 -8 -10 24 7 23 1 -8 -29 -14 -14 -23 -29 -20 -34 3 -5 -1 -14 -9 -21
-8 -7 -15 -21 -15 -31 0 -11 -4 -19 -10 -19 -5 0 -10 -7 -10 -16 0 -8 -4 -13
-9 -10 -5 4 -7 -4 -3 -16 3 -13 1 -19 -5 -15 -6 4 -14 0 -17 -9 -4 -10 -2 -13
7 -9 6 4 3 -1 -7 -9 -11 -9 -16 -16 -10 -16 5 0 5 -3 -1 -8 -6 -4 -16 -20 -24
-37 -7 -16 -20 -42 -28 -58 -8 -15 -11 -32 -8 -37 3 -6 -1 -10 -10 -10 -9 0
-13 -4 -10 -10 3 -5 2 -10 -4 -10 -5 0 -8 -9 -6 -20 2 -11 0 -18 -6 -15 -8 6
-11 -2 -8 -21 0 -4 -5 -11 -13 -15 -10 -7 -10 -9 0 -9 10 0 10 -3 0 -14 -7 -8
-17 -12 -21 -9 -5 3 -4 -4 2 -16 8 -15 9 -21 1 -21 -6 0 -8 -4 -5 -10 3 -5 -1
-10 -9 -10 -10 0 -13 -7 -11 -21 3 -16 0 -19 -12 -15 -13 5 -14 4 -3 -9 10
-12 10 -15 0 -15 -7 0 -10 -7 -6 -16 4 -10 2 -13 -6 -8 -7 5 -9 2 -5 -9 3 -9
0 -18 -8 -21 -10 -3 -13 -16 -11 -35 2 -18 -1 -29 -8 -28 -6 1 -12 -13 -14
-31 -2 -18 -8 -30 -13 -27 -8 6 -14 -23 -10 -52 1 -7 -5 -13 -13 -13 -9 0 -13
-7 -11 -20 2 -11 0 -22 -5 -25 -5 -3 -6 -13 -3 -22 5 -12 3 -14 -8 -8 -12 8
-12 6 0 -9 12 -14 12 -17 1 -14 -16 4 -20 -24 -5 -34 6 -5 3 -8 -7 -8 -12 0
-15 -5 -11 -17 4 -11 3 -14 -5 -9 -8 5 -12 -4 -12 -29 0 -22 -4 -34 -10 -30
-10 6 -11 0 -14 -55 0 -14 -6 -24 -13 -23 -7 2 -10 -4 -7 -12 4 -8 1 -15 -6
-15 -6 0 -8 -5 -4 -12 10 -16 13 -48 4 -43 -11 7 -28 -31 -20 -46 5 -8 4 -19
-2 -26 -6 -8 -8 -16 -5 -20 4 -3 -1 -12 -11 -20 -11 -10 -12 -12 -2 -8 10 4 9
2 -2 -8 -10 -8 -15 -17 -12 -20 9 -8 -5 -59 -14 -53 -4 2 -6 -18 -6 -45 1 -27
-3 -49 -8 -49 -5 0 -6 -5 -2 -12 5 -8 2 -9 -10 -5 -14 6 -15 3 -6 -13 8 -14 7
-26 0 -41 -7 -11 -9 -23 -6 -27 3 -3 6 1 6 8 0 7 3 10 7 7 3 -4 -1 -15 -11
-26 -20 -21 -31 -65 -14 -55 7 5 8 2 2 -7 -13 -21 -14 -39 -1 -39 8 0 7 -4 -2
-9 -7 -5 -10 -14 -7 -20 4 -6 2 -11 -3 -11 -6 0 -11 -5 -11 -11 0 -5 6 -7 13
-3 6 4 4 -2 -7 -14 -11 -13 -16 -30 -13 -42 3 -11 1 -23 -5 -26 -6 -4 -5 -10
3 -15 8 -5 9 -9 3 -9 -6 0 -10 -11 -9 -25 3 -26 -10 -35 -18 -12 -2 6 -3 -12
-1 -42 2 -33 -1 -60 -9 -70 -8 -10 -8 -12 -1 -8 8 4 11 -2 10 -17 0 -16 -5
-21 -11 -16 -7 6 -11 2 -12 -11 -1 -11 2 -17 8 -14 5 4 9 2 9 -3 0 -6 -7 -13
-15 -16 -13 -4 -14 -10 -5 -26 8 -15 8 -20 -2 -20 -8 0 -9 -3 -3 -8 12 -8 13
-57 3 -68 -4 -4 -3 -16 3 -27 8 -14 8 -18 0 -13 -6 4 -11 1 -12 -6 0 -7 -2
-21 -4 -31 -2 -9 0 -15 4 -13 4 3 7 -4 7 -14 0 -13 -4 -16 -11 -10 -8 7 -12 5
-12 -5 0 -8 5 -15 11 -15 6 0 4 -5 -4 -10 -8 -5 -10 -10 -4 -10 6 0 11 -7 11
-15 0 -8 -4 -12 -9 -9 -4 3 -8 1 -8 -5 0 -5 5 -13 10 -16 6 -4 7 -13 2 -23
-10 -19 -8 -109 1 -119 4 -3 2 -12 -4 -20 -9 -9 -8 -17 0 -27 9 -11 9 -16 0
-22 -8 -5 -9 -3 -4 7 8 12 6 12 -8 0 -18 -15 -23 -26 -7 -16 6 3 11 0 11 -7 1
-7 2 -20 3 -28 0 -8 -5 -20 -13 -26 -11 -9 -12 -12 -1 -19 9 -6 11 -4 5 6 -5
8 -4 11 1 6 14 -13 11 -41 -6 -49 -11 -5 -10 -7 5 -7 16 -1 17 -3 6 -10 -12
-8 -12 -14 4 -38 10 -15 14 -25 10 -21 -4 4 -13 2 -20 -5 -10 -9 -9 -14 3 -23
12 -9 12 -13 2 -19 -9 -6 -11 -4 -5 6 5 8 4 11 0 6 -5 -4 -9 -21 -10 -38 -1
-23 2 -28 14 -24 11 4 9 0 -5 -16 -10 -12 -13 -19 -6 -15 6 4 12 4 13 -1 0 -4
2 -37 3 -73 1 -36 6 -72 11 -79 5 -9 4 -12 -3 -7 -7 4 -10 -1 -9 -14 1 -11 5
-20 10 -20 5 0 4 -7 -3 -15 -10 -12 -10 -19 -2 -27 8 -8 8 -17 0 -31 -7 -15
-7 -22 3 -28 11 -7 11 -9 -1 -9 -12 0 -12 -2 -1 -9 10 -7 11 -13 1 -31 -11
-20 -10 -22 4 -17 14 6 15 3 5 -14 -8 -15 -8 -19 0 -15 6 4 11 3 11 -3 0 -5
-6 -12 -12 -14 -8 -4 -7 -6 3 -6 12 -1 15 -9 13 -32 -2 -17 -6 -34 -9 -39 -3
-5 -1 -11 4 -15 10 -6 7 -37 -5 -57 -4 -6 -3 -8 4 -4 6 3 13 2 17 -4 3 -5 1
-10 -5 -10 -6 0 -4 -10 5 -24 11 -17 13 -26 5 -31 -7 -4 -8 -11 -2 -18 5 -7 9
-33 8 -59 0 -25 2 -44 7 -41 12 7 8 -12 -5 -26 -11 -10 -10 -11 3 -6 10 4 19
0 23 -11 5 -12 2 -15 -11 -10 -15 5 -14 3 2 -9 17 -14 18 -17 5 -25 -8 -5 -10
-10 -5 -10 6 0 10 -18 9 -40 0 -25 5 -41 13 -45 8 -2 11 -10 8 -15 -4 -6 -1
-18 7 -27 8 -10 8 -14 1 -10 -8 5 -11 -1 -9 -19 2 -14 9 -30 16 -34 10 -6 8
-9 -6 -13 -16 -4 -16 -5 -2 -6 12 -1 15 -6 11 -18 -4 -10 -2 -14 4 -10 7 5 10
-6 7 -30 -4 -39 11 -67 29 -56 6 4 7 1 2 -7 -12 -19 -13 -60 -1 -67 5 -3 6 -1
2 5 -4 7 -5 12 -2 12 3 0 10 -9 16 -20 9 -16 8 -19 -7 -14 -17 5 -17 5 -1 -8
11 -9 14 -19 8 -28 -6 -9 -3 -19 8 -28 9 -7 11 -11 4 -7 -16 8 -16 -20 1 -34
8 -6 17 -7 22 -3 4 4 1 -3 -6 -16 -12 -19 -12 -24 1 -32 8 -5 10 -10 5 -10 -6
0 -11 -9 -11 -19 0 -11 3 -18 7 -15 4 2 12 -3 19 -11 10 -12 10 -15 0 -15 -10
0 -10 -4 1 -16 10 -13 10 -17 -2 -25 -11 -7 -8 -9 10 -9 20 0 21 -2 11 -15
-10 -12 -10 -15 0 -15 7 0 10 -7 6 -15 -3 -8 -1 -15 3 -15 5 0 12 -7 15 -16 6
-15 4 -15 -11 -3 -17 13 -17 12 -3 -6 24 -32 42 -68 31 -60 -18 10 -12 -7 7
-22 9 -8 11 -12 5 -8 -9 4 -11 1 -7 -9 3 -9 11 -16 16 -16 7 0 6 -5 -1 -13 -8
-10 -7 -17 2 -27 8 -9 8 -11 0 -6 -13 7 -12 -19 2 -31 4 -4 5 -2 1 5 -4 6 -3
12 3 12 6 0 8 -12 5 -30 -4 -20 -2 -30 5 -30 7 0 9 -4 6 -10 -3 -6 2 -10 12
-11 11 0 13 -3 5 -6 -9 -3 -7 -10 9 -24 14 -12 20 -26 16 -39 -5 -18 -3 -19
11 -8 10 8 13 9 9 1 -4 -6 -3 -14 1 -17 5 -3 8 -19 7 -36 -1 -23 2 -30 12 -26
9 4 11 1 7 -5 -4 -6 0 -15 7 -20 11 -7 11 -9 1 -9 -10 0 -9 -4 2 -16 9 -8 14
-20 11 -25 -4 -5 -1 -9 5 -9 7 0 9 -7 6 -16 -3 -8 -2 -13 2 -11 12 7 45 -30
33 -38 -8 -4 -6 -12 5 -22 12 -13 13 -17 2 -24 -10 -7 -9 -9 4 -9 9 0 20 -5
24 -12 5 -7 3 -8 -7 -3 -11 7 -12 6 -3 -6 6 -8 12 -22 13 -31 3 -41 5 -47 13
-42 5 4 12 -3 15 -15 3 -11 9 -18 14 -15 5 3 6 -3 2 -12 -4 -12 -3 -15 5 -10
8 5 10 2 6 -8 -4 -10 -1 -16 7 -16 11 0 11 -3 -1 -10 -10 -6 -11 -10 -2 -10 6
0 12 -7 12 -15 0 -8 5 -15 12 -15 6 0 9 -3 5 -6 -3 -4 4 -25 15 -48 12 -22 21
-44 20 -48 -1 -3 6 -12 16 -20 16 -12 16 -11 2 7 -14 18 -14 19 1 7 11 -8 15
-21 11 -35 -5 -19 -3 -20 10 -9 14 11 16 11 14 0 -1 -7 -5 -19 -9 -25 -5 -8
-3 -11 5 -8 7 3 19 -4 26 -16 9 -14 9 -19 2 -14 -9 6 -9 2 -1 -13 6 -11 16
-23 23 -25 10 -4 9 -8 -2 -17 -13 -9 -12 -10 5 -8 11 2 20 -3 21 -9 1 -7 2
-18 3 -24 0 -5 6 -7 13 -3 8 5 9 0 6 -14 -4 -12 -2 -20 3 -16 5 3 9 -2 9 -11
0 -9 4 -13 10 -10 6 4 7 -1 3 -11 -5 -13 -3 -15 8 -9 11 7 11 5 -1 -10 -8 -10
-10 -16 -4 -12 14 8 57 -50 50 -68 -3 -8 0 -17 6 -21 7 -4 8 -3 4 4 -4 7 -4
12 1 12 9 0 39 -63 32 -68 -2 -2 7 -10 21 -19 16 -9 18 -12 6 -8 -19 6 -19 5
-3 -13 9 -10 17 -24 17 -31 0 -7 4 -9 10 -6 9 5 15 -15 11 -38 0 -4 2 -6 6 -5
5 2 9 -1 10 -5 1 -5 13 -19 27 -32 14 -13 26 -29 26 -34 0 -6 10 -20 22 -32
13 -12 16 -19 8 -15 -9 5 -8 2 3 -7 9 -8 17 -19 17 -25 0 -5 7 -12 15 -15 8
-3 12 -15 10 -25 -3 -16 1 -19 18 -16 12 2 17 2 10 -2 -10 -4 -10 -8 0 -19 7
-7 17 -10 22 -7 6 3 3 -3 -5 -13 -8 -10 -10 -16 -5 -13 6 4 17 3 25 -3 10 -6
11 -9 2 -9 -7 0 -4 -8 8 -20 11 -11 25 -20 32 -20 6 0 9 -3 6 -6 -4 -3 9 -21
28 -41 19 -19 34 -40 34 -46 0 -5 3 -8 6 -4 3 3 16 -6 29 -21 16 -19 20 -29
12 -34 -8 -5 -7 -8 4 -8 9 0 23 -8 30 -17 12 -15 12 -16 -1 -8 -8 4 -6 -1 5
-12 11 -11 23 -19 27 -16 4 2 5 -3 2 -11 -3 -9 -1 -16 6 -16 6 0 8 -5 5 -10
-4 -6 -1 -9 7 -8 7 2 12 -3 10 -9 -1 -7 5 -13 13 -13 9 0 24 -13 33 -30 9 -16
22 -30 29 -30 7 0 10 -9 8 -20 -2 -11 0 -18 5 -15 5 3 14 -4 20 -15 6 -11 16
-17 22 -14 8 5 9 1 4 -12 -4 -10 -4 -15 0 -11 4 4 18 -8 32 -26 14 -17 22 -24
18 -14 -3 11 -2 16 4 12 6 -3 10 -13 10 -21 0 -7 9 -19 20 -26 11 -7 20 -19
20 -26 0 -7 4 -11 9 -7 6 3 15 -4 21 -15 7 -13 17 -19 26 -16 9 3 12 1 9 -5
-8 -12 14 -41 26 -33 5 3 9 -2 9 -11 0 -8 9 -19 21 -23 11 -5 20 -11 20 -15
-3 -25 0 -29 16 -16 13 11 15 11 9 1 -8 -14 31 -60 46 -54 5 1 8 -5 8 -14 0
-11 5 -14 16 -10 11 4 15 2 11 -8 -4 -9 2 -17 14 -21 10 -4 17 -11 14 -16 -4
-5 -1 -9 5 -9 6 0 8 -6 4 -12 -5 -10 -4 -10 6 -1 9 9 19 5 41 -18 15 -16 33
-29 39 -29 5 0 10 -7 10 -16 0 -8 5 -12 10 -9 6 3 10 1 10 -4 0 -6 7 -11 16
-11 8 0 12 -4 9 -10 -3 -5 -1 -10 5 -10 6 0 9 -4 6 -9 -3 -5 2 -8 11 -7 9 0
22 -8 28 -20 6 -12 18 -20 28 -18 15 2 16 0 6 -12 -10 -12 -10 -15 2 -12 8 2
17 8 21 13 4 6 8 0 8 -13 0 -12 3 -21 8 -21 4 1 14 1 22 0 13 -1 13 -2 0 -11
-13 -8 -12 -10 5 -11 11 -1 24 -1 29 0 5 1 6 -5 2 -14 -3 -9 -2 -13 4 -10 6 3
10 1 10 -5 0 -6 4 -9 9 -6 5 3 12 -1 15 -10 4 -10 12 -14 22 -10 14 5 15 4 5
-8 -11 -13 -9 -15 8 -11 16 3 21 -1 22 -18 0 -12 3 -17 5 -10 4 8 11 7 23 -5
10 -9 15 -21 12 -27 -2 -5 4 -3 14 5 10 8 16 10 12 3 -10 -17 35 -45 59 -37
13 4 15 3 6 -3 -9 -7 -7 -14 11 -29 13 -11 28 -19 34 -17 6 2 20 -8 31 -22 11
-14 25 -25 32 -25 6 0 8 -5 4 -12 -5 -8 0 -7 11 2 17 14 18 13 12 -3 -4 -11
-3 -16 3 -12 6 3 10 1 10 -4 0 -6 9 -11 20 -11 11 0 20 -4 20 -10 0 -5 7 -10
16 -10 9 0 18 -9 21 -21 4 -14 12 -19 24 -16 11 3 19 1 19 -5 0 -6 8 -7 17 -4
10 4 14 4 10 0 -11 -11 23 -43 39 -37 8 3 14 0 14 -7 0 -6 4 -9 9 -5 5 3 16
-2 24 -10 9 -8 21 -15 27 -15 6 0 8 -5 4 -12 -5 -8 0 -7 11 2 15 12 17 12 10
1 -6 -11 -4 -13 8 -8 9 3 19 1 23 -5 5 -7 2 -8 -6 -3 -9 5 -11 4 -6 -3 4 -7
14 -12 22 -12 9 0 12 -5 8 -11 -4 -8 0 -8 15 0 17 10 20 9 15 -4 -4 -10 -2
-13 8 -10 7 3 24 -4 36 -16 13 -11 30 -18 38 -15 8 3 13 2 10 -3 -3 -5 15 -16
39 -26 25 -9 43 -20 40 -25 -3 -4 2 -11 11 -14 9 -4 13 -2 8 5 -5 8 -1 8 13 0
11 -6 24 -7 28 -3 5 4 5 1 1 -6 -4 -7 -12 -9 -18 -6 -7 5 -8 2 -4 -5 5 -7 14
-10 22 -7 7 3 16 1 18 -3 3 -5 23 -11 44 -15 21 -3 93 -33 159 -66 67 -33 124
-60 127 -60 3 0 58 -21 123 -46 141 -56 331 -124 578 -206 17 -6 64 -17 105
-24 41 -8 95 -21 120 -29 25 -8 63 -17 85 -20 22 -4 67 -14 100 -22 33 -8 83
-19 110 -23 28 -5 104 -20 170 -34 66 -14 140 -26 165 -26 25 0 72 -5 105 -10
155 -27 997 -17 1015 11 3 4 75 13 159 19 85 6 162 15 172 20 10 6 36 10 58
10 23 0 41 5 41 10 0 6 12 10 27 10 41 0 143 23 143 32 0 4 13 8 29 8 16 0 41
4 56 10 26 10 92 23 200 40 33 6 78 16 100 25 22 8 72 22 110 30 82 19 361
111 390 129 11 7 34 16 50 20 28 7 202 82 255 110 14 7 50 21 80 31 70 23 321
148 380 189 25 18 70 45 100 61 30 15 67 36 82 47 14 10 30 18 35 18 5 0 53
29 106 65 54 36 118 75 143 86 24 12 65 41 91 65 25 24 51 44 58 44 6 0 24 14
41 31 16 17 45 40 64 51 36 22 47 31 92 73 15 14 33 25 40 25 8 0 20 9 28 21
30 43 48 59 63 59 9 0 40 24 69 53 29 30 87 80 128 113 41 32 86 72 100 88 14
17 31 35 38 40 8 6 26 23 40 37 15 14 48 43 75 63 26 21 47 42 47 47 0 14 260
270 303 299 20 14 42 37 48 53 6 15 14 27 18 27 12 0 106 95 109 110 2 8 8 17
13 18 5 2 7 8 3 13 -3 5 2 9 11 9 9 0 13 5 10 10 -3 6 3 23 15 39 11 17 19 36
18 43 -2 7 5 12 15 12 14 -2 15 1 6 12 -9 11 -9 14 0 14 7 0 9 5 6 10 -3 6 1
10 10 10 9 0 13 5 10 10 -3 6 1 13 10 16 12 5 13 9 4 20 -9 12 -9 13 4 9 11
-5 22 9 41 50 15 30 31 53 35 51 4 -3 6 6 3 21 -3 16 -1 24 5 20 6 -4 17 1 24
10 11 14 12 15 1 9 -8 -5 -2 10 13 33 15 22 30 41 32 41 2 0 1 -5 -3 -12 -4
-7 -3 -8 5 -4 9 6 9 11 1 21 -8 9 -6 14 6 19 9 3 14 13 10 21 -3 8 0 17 6 21
7 4 8 3 4 -4 -4 -7 -2 -12 3 -12 6 0 11 7 11 16 0 9 5 12 13 8 8 -5 8 -2 -2 9
-9 12 -10 17 -2 17 7 0 10 4 7 9 -3 5 1 12 10 15 9 4 14 13 10 22 -3 8 -2 12
4 9 6 -3 13 1 16 9 3 9 11 13 18 9 6 -4 4 2 -4 12 -9 11 -10 16 -2 11 7 -4 12
-2 12 6 0 8 7 23 16 34 8 10 12 13 8 5 -5 -9 -3 -12 4 -7 9 5 9 13 1 28 -7 13
-7 18 0 14 5 -4 15 3 21 14 8 15 8 20 -2 21 -7 0 -3 4 10 9 12 5 22 17 22 26
0 9 8 23 18 31 9 8 11 12 5 8 -21 -10 -15 2 15 31 15 15 21 23 15 20 -7 -4
-13 -2 -13 3 0 6 5 11 11 11 6 0 8 7 5 17 -4 10 -4 14 0 11 12 -13 33 16 22
30 -8 10 -6 11 8 5 17 -6 18 -5 4 12 -12 15 -12 17 -1 10 11 -6 13 -3 9 13 -4
15 -2 20 11 17 12 -2 16 5 16 29 0 18 5 30 12 29 7 -2 10 6 8 17 -2 11 2 20 8
20 7 0 6 4 -3 10 -13 8 -12 10 4 10 15 0 16 3 6 15 -11 13 -10 14 4 9 18 -7
19 15 1 28 -6 4 -2 8 8 8 10 0 15 4 12 10 -3 6 -1 10 6 10 7 0 9 3 6 7 -4 3
-1 13 6 21 10 13 9 15 -3 8 -8 -4 -7 -1 4 8 10 8 15 19 11 25 -3 6 -1 11 4 11
6 0 10 3 10 8 -4 21 2 32 14 26 7 -5 6 0 -3 11 -12 15 -12 17 -1 10 11 -6 13
-4 7 11 -4 10 -4 15 0 11 8 -8 36 42 29 53 -3 4 2 13 10 20 7 6 11 19 8 27 -5
11 -3 14 6 8 10 -6 11 -3 1 15 -7 13 -8 20 -2 16 14 -9 23 8 24 44 1 18 6 30
14 30 7 0 11 6 8 14 -3 8 -1 17 5 20 6 4 7 14 4 23 -5 12 -3 14 7 8 10 -6 12
-4 7 8 -8 22 2 49 15 41 6 -4 4 4 -3 17 -11 21 -10 22 3 12 13 -11 15 -9 14
15 -1 15 6 42 16 61 13 26 15 39 7 54 -8 14 -8 18 0 13 6 -4 11 -2 11 4 0 6 4
9 9 5 6 -3 8 6 5 20 -3 15 0 25 7 25 8 0 8 4 0 14 -9 11 -9 16 0 22 8 5 9 3 4
-6 -5 -9 -4 -11 4 -6 7 4 10 13 8 19 -2 7 0 20 5 30 6 11 5 17 -3 17 -7 0 -2
11 11 25 13 14 18 25 12 25 -7 0 -12 -5 -12 -11 0 -5 -5 -7 -11 -4 -6 5 -3 12
10 21 12 9 18 22 16 34 -2 11 4 25 13 31 16 10 16 10 0 5 -21 -6 -24 9 -4 17
10 4 14 19 13 46 -2 23 1 41 5 41 4 0 7 6 6 13 -2 6 2 11 8 10 6 -1 9 16 8 43
-1 24 1 42 6 39 4 -3 11 2 14 11 3 8 2 12 -3 9 -5 -3 -13 0 -17 6 -4 7 -3 9 2
6 6 -3 16 -2 24 4 8 5 10 9 4 9 -6 0 -11 7 -11 15 0 8 5 15 10 15 5 0 4 7 -3
15 -9 10 -9 15 -1 15 13 0 10 22 -4 32 -6 4 -2 8 8 8 9 0 17 5 17 11 0 5 -6 7
-12 3 -8 -4 -7 1 2 12 17 21 19 42 6 62 -4 7 -3 19 4 27 7 8 10 22 6 30 -3 8
-2 15 3 15 5 0 7 11 6 25 -2 15 1 23 7 19 6 -4 9 12 8 42 -3 79 -1 106 8 100
5 -3 9 1 9 9 0 8 -4 12 -8 10 -4 -3 -5 4 -2 15 3 11 10 20 17 20 6 0 4 5 -4
10 -12 8 -12 10 -1 10 11 0 11 3 1 15 -7 8 -8 15 -3 15 6 0 9 13 7 30 -2 16 1
32 6 35 6 4 7 12 3 18 -12 19 -10 67 2 57 7 -5 10 13 10 57 0 35 4 67 8 70 5
3 4 9 -3 13 -9 6 -9 12 0 30 10 18 10 21 -2 14 -11 -6 -11 -5 0 8 7 9 9 19 4
22 -10 6 -9 36 2 54 4 7 2 12 -6 12 -9 0 -9 3 2 10 11 7 11 10 2 10 -9 0 -10
5 -2 19 7 14 7 20 -2 23 -8 3 -8 9 1 25 8 16 8 24 0 29 -8 4 -7 9 2 15 12 7
12 9 0 9 -10 0 -11 3 -2 14 7 8 8 17 3 20 -10 6 -9 36 2 54 4 7 2 12 -6 12 -9
0 -9 3 2 10 11 7 11 10 2 10 -10 0 -10 5 -2 20 6 11 7 20 1 20 -5 0 -8 11 -7
24 0 13 4 22 9 19 4 -2 7 0 7 6 0 5 -6 11 -12 14 -10 3 -10 7 1 20 7 10 9 17
4 17 -6 0 -9 19 -8 43 2 23 -3 49 -10 57 -19 22 -20 23 -6 49 11 19 11 22 0
16 -9 -6 -11 -3 -6 8 3 9 2 19 -3 22 -6 4 -7 13 -2 23 5 9 8 41 6 69 -1 37 2
51 10 46 6 -3 3 3 -7 14 -14 16 -15 22 -5 26 10 4 10 6 1 6 -7 1 -13 6 -13 12
0 5 6 7 13 4 6 -4 4 0 -7 9 -12 9 -17 23 -13 36 3 11 0 20 -6 20 -8 0 -7 4 2
9 11 7 11 9 0 14 -12 5 -12 6 0 6 11 1 11 4 1 16 -9 11 -9 15 -1 15 7 0 9 5 5
12 -4 6 -7 34 -7 61 1 29 -5 56 -12 64 -8 8 -12 30 -11 56 2 23 -2 48 -8 56
-9 12 -8 13 2 7 11 -7 12 -4 3 13 -7 11 -17 21 -24 21 -8 0 -7 4 3 11 12 8 12
12 2 16 -10 4 -10 8 -1 19 8 10 8 14 0 14 -12 0 -11 22 3 31 5 4 0 11 -10 17
-15 8 -19 21 -19 56 0 28 -4 45 -11 42 -5 -2 -11 12 -12 32 -2 19 -5 39 -8 44
-3 4 -1 8 5 8 6 0 8 7 5 15 -4 8 -10 13 -14 10 -5 -3 -6 5 -3 17 3 16 2 19 -5
10 -6 -9 -8 5 -7 41 2 42 -1 54 -11 50 -9 -3 -11 2 -7 16 3 12 1 21 -6 21 -7
0 -8 8 -1 26 7 16 7 23 0 19 -6 -3 -10 1 -10 10 0 9 -5 13 -10 10 -7 -4 -9 3
-6 20 5 29 -2 57 -13 51 -4 -3 -7 3 -8 12 -2 52 -8 80 -15 76 -7 -5 -11 14
-11 59 0 9 -4 17 -9 17 -5 0 -7 4 -3 9 3 5 -1 16 -9 23 -10 11 -11 19 -4 33 8
13 7 16 -1 11 -6 -4 -11 -2 -11 4 0 6 -4 9 -9 6 -5 -3 -8 9 -7 27 1 22 -3 31
-13 29 -8 -2 -11 3 -8 13 4 8 1 15 -6 15 -8 0 -7 4 3 10 12 8 12 10 -3 16 -10
4 -17 17 -17 33 0 15 -6 33 -12 40 -10 11 -10 12 -1 7 9 -5 11 -2 7 8 -3 9
-14 16 -23 16 -12 0 -13 2 -3 9 20 12 19 17 -8 40 -17 14 -20 20 -10 21 13 0
13 1 0 10 -8 5 -11 10 -5 10 5 0 -1 7 -14 16 -15 11 -19 20 -13 26 12 12 4 40
-9 32 -5 -3 -9 9 -9 26 0 22 -4 29 -12 24 -9 -5 -9 -2 1 9 12 15 11 17 -4 17
-11 0 -15 5 -11 15 3 8 0 15 -6 15 -7 0 -6 5 2 15 10 12 8 14 -9 10 -14 -3
-18 1 -14 11 6 16 -15 47 -27 39 -4 -2 -5 7 -2 22 3 18 1 24 -7 19 -7 -4 -11
0 -11 11 0 11 -6 25 -12 32 -10 11 -10 13 0 7 6 -4 12 -3 12 2 0 6 -7 13 -16
16 -10 4 -13 13 -9 27 5 15 4 19 -4 15 -6 -4 -11 0 -11 8 0 9 -5 16 -11 16 -5
0 -8 4 -5 9 3 5 -1 12 -10 15 -9 3 -14 12 -11 20 3 8 -2 16 -12 19 -14 3 -17
12 -13 36 3 22 0 33 -12 37 -9 3 -13 10 -10 15 3 5 -2 16 -10 25 -9 9 -13 20
-10 26 4 7 2 8 -4 4 -7 -4 -12 -1 -12 8 0 9 -5 16 -11 16 -6 0 -9 9 -6 19 3
14 1 18 -9 14 -9 -3 -14 2 -14 15 0 11 -6 27 -13 34 -8 7 -13 21 -11 30 1 10
-1 17 -4 17 -28 -4 -34 1 -21 18 10 11 10 14 2 9 -8 -4 -13 -1 -13 9 0 9 -4
13 -10 10 -9 -5 -11 -1 -10 20 1 3 -6 13 -15 21 -8 9 -13 20 -10 25 4 5 1 9
-4 9 -6 0 -11 6 -11 14 0 7 -11 21 -24 30 -16 10 -24 23 -21 35 2 11 -4 26
-13 33 -16 12 -16 11 -2 -7 14 -19 14 -19 -2 -6 -10 7 -18 24 -18 38 0 14 -4
21 -10 18 -5 -3 -10 -1 -10 5 0 16 -26 40 -35 32 -4 -4 -5 -2 -4 3 4 12 -18
53 -38 73 -7 8 -11 18 -8 23 4 5 -1 9 -9 9 -10 0 -13 7 -11 20 3 15 -1 20 -13
18 -12 -2 -16 3 -14 16 2 11 -1 15 -7 11 -10 -5 -15 7 -12 28 0 4 -5 7 -13 7
-8 0 -17 7 -20 16 -3 8 -2 12 4 9 6 -3 10 -1 10 4 0 6 -10 11 -21 11 -18 0
-20 2 -9 16 8 8 9 14 4 12 -12 -4 -65 48 -57 56 3 3 -2 8 -11 12 -9 3 -14 10
-11 14 3 5 -5 16 -17 24 -12 9 -18 16 -13 16 6 1 0 6 -12 13 -22 12 -23 14
-23 43 0 13 -3 14 -13 5 -10 -8 -14 -7 -15 4 -1 8 -3 22 -4 30 -1 8 -5 12 -9
9 -10 -6 -50 37 -43 47 2 4 -4 6 -15 4 -15 -3 -19 1 -16 15 3 13 -1 17 -11 13
-8 -3 -14 0 -14 7 0 6 -7 18 -15 27 -8 8 -12 20 -8 26 4 7 -2 5 -13 -3 -10 -8
-16 -11 -12 -6 8 10 -11 51 -19 42 -7 -7 -33 20 -33 35 0 7 -3 10 -6 6 -8 -8
-34 18 -34 33 0 7 -6 10 -14 7 -10 -4 -12 0 -8 16 5 20 4 21 -13 7 -11 -9 -16
-10 -11 -2 4 7 2 12 -4 12 -6 0 -8 5 -5 10 3 6 -1 10 -9 10 -9 0 -15 3 -15 8
3 17 -1 32 -8 30 -10 -3 -49 24 -54 37 -2 6 -12 9 -22 9 -14 -1 -15 1 -5 14
10 12 10 14 1 8 -7 -4 -13 -2 -13 3 0 6 -6 11 -14 11 -8 0 -18 5 -22 12 -4 7
-3 8 4 4 8 -5 10 -2 6 8 -7 19 -20 21 -27 4 -3 -7 -6 -3 -6 10 -1 12 -7 22
-15 22 -8 0 -18 9 -21 20 -4 11 -11 18 -16 15 -5 -4 -9 2 -9 12 0 15 -2 16
-10 3 -8 -12 -10 -10 -10 9 0 16 -4 21 -15 18 -8 -4 -17 -1 -21 5 -5 7 -2 8 7
4 8 -4 6 -1 -3 7 -10 8 -14 18 -10 23 4 4 -2 2 -12 -6 -11 -8 -17 -10 -14 -5
11 17 -78 96 -99 89 -15 -5 -15 -4 -3 4 12 9 10 13 -12 21 -32 12 -78 57 -69
68 3 4 -2 1 -12 -6 -15 -12 -17 -12 -11 3 4 11 1 16 -11 16 -9 0 -13 4 -10 10
3 6 -1 7 -9 4 -9 -4 -18 1 -22 10 -3 9 -12 16 -20 16 -8 0 -14 7 -14 15 0 9
-6 12 -17 8 -11 -4 -14 -3 -9 5 4 7 1 12 -7 12 -7 0 -23 9 -34 20 -15 14 -23
16 -26 7 -3 -7 -6 -2 -6 11 -1 13 -7 22 -17 22 -8 0 -13 4 -10 9 6 8 -14 21
-41 27 -7 1 -24 16 -39 33 -14 17 -29 29 -33 27 -9 -6 -63 29 -57 35 3 3 -5
11 -17 18 -20 13 -21 13 -8 -2 21 -26 5 -20 -22 7 -14 14 -28 22 -31 19 -3 -4
-6 2 -7 13 0 10 -3 14 -6 7 -3 -10 -7 -10 -18 0 -7 7 -10 16 -7 21 3 5 0 6 -6
2 -6 -3 -14 -1 -17 5 -4 5 -13 8 -21 5 -8 -3 -13 0 -11 7 1 7 -6 11 -16 9 -10
-2 -16 3 -15 10 2 8 -6 12 -22 10 -18 -2 -21 0 -12 6 11 7 7 11 -12 16 -15 4
-24 11 -21 16 4 6 -1 7 -11 3 -12 -5 -15 -3 -9 6 5 10 2 11 -14 6 -15 -4 -21
-3 -19 7 2 7 -3 12 -9 10 -7 -1 -13 2 -13 8 0 5 -7 6 -17 3 -11 -4 -14 -3 -9
5 7 11 -6 17 -28 13 -5 -1 -6 4 -3 12 3 9 -2 13 -16 12 -12 -1 -29 6 -38 16
-9 10 -19 16 -23 12 -3 -3 -6 -1 -6 6 0 7 -4 9 -10 6 -5 -3 -10 -1 -10 5 0 6
-4 8 -10 5 -5 -3 -10 -1 -10 5 0 6 -4 8 -10 5 -5 -3 -10 1 -10 10 0 13 -4 14
-21 4 -15 -8 -19 -8 -15 0 8 12 -33 32 -48 23 -5 -3 -6 0 -3 5 8 13 -18 24
-38 17 -10 -4 -13 0 -10 16 3 18 2 20 -10 10 -12 -10 -15 -10 -15 1 0 11 -2
11 -10 -1 -8 -12 -10 -10 -10 9 0 20 -2 21 -15 11 -11 -10 -15 -10 -15 0 0 6
-5 10 -12 8 -6 -2 -20 4 -31 15 -15 15 -21 16 -27 7 -6 -9 -11 -7 -19 6 -6 11
-11 15 -11 10 0 -5 -7 -3 -15 4 -8 7 -15 9 -15 4 0 -4 -7 1 -16 12 -8 10 -13
13 -9 7 4 -9 1 -11 -9 -7 -9 3 -13 10 -10 15 7 12 -3 11 -27 -1 -11 -6 -19 -7
-18 -3 4 24 -3 31 -27 27 -14 -3 -23 -1 -20 4 2 4 1 14 -5 22 -5 8 -9 10 -9 4
0 -14 -56 -5 -70 11 -6 8 -17 12 -25 9 -7 -3 -16 0 -21 7 -5 8 -3 10 6 4 8 -5
11 -4 7 2 -3 5 -20 8 -36 7 -17 -1 -28 2 -25 7 5 8 -12 13 -43 12 -7 -1 -13 4
-13 9 0 6 -7 7 -16 4 -8 -3 -13 -2 -10 3 3 5 -1 11 -8 14 -8 3 -17 1 -20 -6
-3 -8 -5 -8 -5 2 -1 11 -4 11 -17 1 -8 -8 -14 -9 -13 -4 4 22 -3 29 -34 31
-17 2 -37 10 -43 18 -9 13 -13 13 -17 3 -3 -8 -6 -9 -6 -1 -1 6 -10 9 -21 6
-12 -3 -20 0 -20 6 0 7 5 9 12 5 6 -4 8 -3 5 3 -3 5 -24 9 -47 8 -26 -1 -45 4
-53 14 -11 14 -10 15 8 1 19 -14 19 -14 6 3 -11 14 -17 15 -28 5 -11 -9 -16
-9 -22 1 -4 6 -12 11 -17 10 -19 -3 -35 1 -30 9 3 5 -1 9 -9 9 -8 0 -11 -5 -8
-11 4 -6 0 -5 -9 2 -9 7 -20 12 -24 11 -18 -3 -54 14 -54 25 0 6 -5 4 -11 -4
-7 -10 -12 -11 -15 -3 -4 8 -14 9 -35 3 -16 -5 -27 -5 -24 0 9 14 -16 23 -66
24 -35 1 -52 6 -64 21 -9 11 -14 14 -10 8 8 -16 -36 -13 -47 2 -5 6 -8 5 -8
-4 0 -9 -5 -7 -17 6 -10 10 -14 13 -10 7 6 -9 2 -11 -12 -7 -12 3 -18 9 -15
14 7 12 -3 11 -26 -1 -12 -6 -21 -7 -25 0 -3 5 -12 7 -20 4 -8 -4 -18 1 -21
10 -3 9 -10 16 -16 16 -5 0 -6 -6 -2 -12 6 -10 5 -10 -7 -1 -8 6 -35 10 -61 9
-26 -1 -49 3 -51 8 -2 5 -11 10 -20 12 -9 1 -15 -2 -12 -6 3 -5 1 -12 -5 -15
-6 -4 -9 -1 -8 7 2 9 -15 14 -65 16 -37 2 -65 6 -63 11 3 4 -1 8 -9 8 -8 0
-12 -5 -8 -10 3 -5 -5 -3 -18 5 -16 10 -50 14 -99 13 -44 -1 -78 3 -82 9 -5 7
-8 6 -8 -3 0 -10 -3 -11 -14 -2 -10 9 -16 9 -21 1 -5 -8 -11 -6 -19 6 -10 13
-15 14 -20 5 -6 -9 -13 -8 -29 6 -11 10 -17 13 -14 6 8 -13 -59 -13 -80 0 -6
4 -14 3 -18 -2 -5 -9 -42 -7 -53 3 -2 3 -13 1 -23 -5 -14 -7 -19 -6 -19 3 0 9
-3 9 -10 -2 -5 -8 -10 -10 -10 -4 0 12 -38 13 -58 0 -8 -5 -19 -3 -25 3 -9 9
-7 11 8 6 16 -5 17 -5 5 3 -8 6 -17 9 -20 7 -14 -9 -75 -15 -62 -7 9 6 -4 8
-35 7 -26 -2 -48 -4 -48 -5 0 -8 -42 -7 -52 2 -10 8 -13 6 -14 -8 0 -11 -3
-14 -6 -6 -2 7 -14 17 -26 24 l-22 11 20 -24z m150 -9 c3 -5 1 -10 -4 -10 -6
0 -11 5 -11 10 0 6 2 10 4 10 3 0 8 -4 11 -10z m3306 -1017 c13 -16 12 -17 -3
-4 -17 13 -22 21 -14 21 2 0 10 -8 17 -17z m74 -52 c3 -5 2 -12 -3 -15 -5 -3
-9 1 -9 9 0 17 3 19 12 6z m1900 -4331 c3 -5 1 -10 -4 -10 -6 0 -11 5 -11 10
0 6 2 10 4 10 3 0 8 -4 11 -10z m7 -34 c7 4 8 2 4 -4 -11 -18 -26 -14 -25 6 0
10 3 12 6 4 2 -6 10 -9 15 -6z m-2 -80 c0 -3 -4 -8 -10 -11 -5 -3 -10 -1 -10
4 0 6 5 11 10 11 6 0 10 -2 10 -4z m-11070 -406 c0 -5 -5 -10 -11 -10 -5 0 -7
5 -4 10 3 6 8 10 11 10 2 0 4 -4 4 -10z m11060 -294 c0 -3 -4 -8 -10 -11 -5
-3 -10 -1 -10 4 0 6 5 11 10 11 6 0 10 -2 10 -4z m-34 -166 c0 -16 -4 -30 -8
-30 -5 0 -8 14 -8 30 0 17 4 30 9 30 5 0 8 -13 7 -30z m-6 -50 c-8 -5 -15 -22
-15 -39 -1 -41 -10 -47 -13 -9 -3 31 12 58 32 58 6 0 4 -4 -4 -10z m-65 -410
c1 -10 -2 -17 -6 -14 -4 2 -7 13 -6 24 2 23 10 17 12 -10z m-28 -62 c-3 -7 -5
-2 -5 12 0 14 2 19 5 13 2 -7 2 -19 0 -25z m-10782 -218 c3 -5 1 -10 -4 -10
-6 0 -11 5 -11 10 0 6 2 10 4 10 3 0 8 -4 11 -10z m2685 -3720 c0 -5 -2 -10
-4 -10 -3 0 -8 5 -11 10 -3 6 -1 10 4 10 6 0 11 -4 11 -10z"/>
<path d="M6200 12460 c-12 -7 -10 -9 8 -7 12 0 22 5 22 9 0 11 -12 10 -30 -2z"/>
<path d="M12083 6973 c0 -9 4 -10 14 -2 7 6 13 12 13 14 0 1 -6 2 -13 2 -8 0
-14 -6 -14 -14z"/>
<path d="M473 6605 c0 -8 4 -12 9 -9 5 3 6 10 3 15 -9 13 -12 11 -12 -6z"/>
<path d="M1330 3566 c0 -2 7 -7 16 -10 8 -3 12 -2 9 4 -6 10 -25 14 -25 6z"/>
<path d="M1810 2900 c0 -5 5 -10 11 -10 5 0 7 5 4 10 -3 6 -8 10 -11 10 -2 0
-4 -4 -4 -10z"/>
<path d="M10715 2659 c-4 -6 -5 -12 -2 -15 2 -3 7 2 10 11 7 17 1 20 -8 4z"/>
<path d="M3530 1476 c0 -2 8 -10 18 -17 15 -13 16 -12 3 4 -13 16 -21 21 -21
13z"/>
<path d="M3630 1416 c0 -2 7 -7 16 -10 8 -3 12 -2 9 4 -6 10 -25 14 -25 6z"/>
</g>
</svg>
